<?xml version="1.0"?>
<svg version="1.1" xmlns="http://www.w3.org/2000/svg" width="128" height="36" style="width: 128px; height: 36px;"><path fill="#51a87d" d="M15.953125,29.015625q0-3.390625,0.3046875-6.7890625t1.2734375-6.6953125q0.28125-0.984375,0.734375-1.9453125t1.109375-1.7109375t1.5625-1.21875t2.15625-0.46875l0.328125,0.03125q1.34375,0.1875,1.984375,1.0859375t0.640625,2.2421875q0,0.359375-0.0859375,0.8984375t-0.2734375,1.0390625t-0.5078125,0.8515625t-0.8046875,0.3515625q-0.21875-0.03125-0.3984375-0.078125t-0.3359375-0.203125q0.25-0.546875,0.4453125-1.140625t0.1953125-1.359375q0-0.28125-0.046875-0.71875t-0.1796875-0.8671875t-0.3515625-0.75t-0.609375-0.3203125q-0.984375,0-1.65625,1.1015625t-1.125,2.8125t-0.671875,3.78125t-0.3359375,4t-0.1328125,3.484375t-0.015625,2.1953125q0,0.75-0.015625,1.65625l0,0.203125q0.015625,0.796875,0.109375,1.515625q0.125,0.8125,0.484375,1.40625t1.125,0.6875q0.234375,0.03125,0.453125,0.03125q0.90625,0,1.640625-0.515625q0.90625-0.640625,1.609375-1.6640625t1.25-2.25t1.0078125-2.3203125t0.8984375-1.8125t0.90625-0.71875q0.15625,0,0.46875,0.0625t0.3125,0.296875q0,0.0625-0.03125,0.171875t-0.078125,0.171875q-0.421875,1.65625-1.0703125,3.4375t-1.65625,3.2421875t-2.46875,2.3828125t-3.5078125,0.921875q-1.46875,0-2.3828125-0.5546875t-1.40625-1.484375t-0.671875-2.1015625t-0.1796875-2.375z M32.29171875,28.46875q0-0.890625,0.2265625-1.8359375t0.71875-1.703125t1.2421875-1.234375t1.8125-0.4765625q0.796875,0,1.6796875,0.2734375t1.6171875,0.78125t1.1953125,1.2421875t0.4609375,1.640625q0,1.09375-0.3984375,2.078125t-1.1171875,1.7578125t-1.6796875,1.21875t-2.0859375,0.4453125q-0.921875,0-1.609375-0.3359375t-1.1484375-0.8984375t-0.6875-1.328125t-0.2265625-1.625z M34.58859375,28.4375q0,0.28125,0.0859375,0.828125t0.2578125,1.0703125t0.4453125,0.90625t0.6640625,0.3515625q0.828125-0.09375,1.3671875-0.5390625t0.875-1.0859375t0.46875-1.390625t0.1328125-1.421875q0-0.859375-0.3359375-1.4375t-1.1015625-0.9375q0,0.03125,0.03125,0.03125t0.03125-0.03125l-0.390625-0.09375q-0.15625-0.0625-0.3828125-0.140625t-0.4453125-0.34375q-0.609375,0.21875-0.9453125,0.5625t-0.5078125,0.8359375t-0.2109375,1.1796875t-0.0390625,1.65625z M44.1615625,29.421875q0-0.578125,0.0234375-1.6953125t0.1640625-2.2734375t0.4609375-2.09375t0.9609375-1.203125q0.15625-0.0625,0.5078125-0.109375t0.703125-0.03125t0.625,0.125t0.2734375,0.40625q0,0.0625-0.0625,0.171875t-0.328125,0.34375q-0.484375,1.34375-0.59375,2.671875t-0.109375,2.734375q0,0.828125,0.0546875,1.65625t0.1796875,1.671875q0.25-0.359375,0.5078125-1.078125t0.546875-1.5703125t0.59375-1.7265625t0.6875-1.59375t0.84375-1.1875t1.0390625-0.46875q0.640625,0,1.0703125,0.8046875t0.796875,1.859375t0.6875,2.140625t0.7734375,1.6640625q0.21875-0.21875,0.3515625-0.5703125t0.2109375-0.7578125t0.09375-0.8046875t0.015625-0.6796875q0-0.703125-0.2109375-1.5234375t-0.4453125-1.5390625t-0.4453125-1.2109375t-0.2109375-0.5703125q0-0.125,0.1328125-0.203125t0.3046875-0.125t0.3515625-0.0625t0.2734375-0.015625q0.578125,0,0.9921875,0.640625t0.65625,1.484375t0.3515625,1.7109375t0.109375,1.3515625q0,0.609375-0.09375,1.296875t-0.3515625,1.2734375t-0.7578125,0.9765625t-1.265625,0.390625q-0.921875,0-1.515625-0.515625t-0.9609375-1.25t-0.578125-1.6015625t-0.3984375-1.5703125q-0.359375,0.828125-0.65625,2.09375t-0.75,2.484375t-1.15625,2.078125t-1.828125,0.859375t-1.6015625-0.5546875t-0.7578125-1.5234375l0.03125,0.03125q-0.1875-0.703125-0.2421875-1.40625t-0.0546875-1.40625z M60.32828125,20.6875q0-1.03125,0.0859375-2.2578125t0.3046875-2.4609375t0.65625-2.3828125t1.125-2.046875t1.6796875-1.4296875t2.3671875-0.53125q1.09375,0,2.015625,0.421875t1.609375,1.140625t1.0703125,1.6796875t0.3828125,2.0078125q0,0.28125-0.3828125,0.3515625t-0.5390625,0.0703125q-0.28125,0-0.5390625-0.046875t-0.3828125-0.375q-0.21875-0.609375-0.4609375-1.28125t-0.59375-1.2265625t-0.8671875-0.9140625q-0.46875-0.3125-1.1875-0.3125l-0.125,0q-1.3125,0.03125-1.953125,0.9375t-0.8828125,2.203125t-0.2421875,2.75l0,2.578125q0,0.640625,0.046875,1.859375t0.2265625,2.65625t0.46875,2.9296875t0.78125,2.71875t1.1796875,2t1.65625,0.7734375q0.859375,0,1.5-0.59375t1.1015625-1.5234375t0.78125-2.078125t0.53125-2.3046875t0.3203125-2.1484375t0.171875-1.6328125q-0.171875-0.015625-0.328125-0.015625q-0.734375,0-1.4375,0.234375q-0.890625,0.265625-1.78125,0.265625q-0.125,0-0.3359375-0.015625t-0.3984375-0.078125t-0.3359375-0.1796875t-0.1484375-0.3046875q0-0.359375,0.7890625-0.609375t1.796875-0.4296875t1.9453125-0.2578125t1.234375-0.078125q0.15625,0,0.4453125,0.03125t0.578125,0.109375t0.4921875,0.2265625t0.203125,0.3671875q0,0.1875-0.140625,0.3359375t-0.3515625,0.2265625t-0.4296875,0.109375t-0.34375,0.03125q0.015625,0.359375,0.015625,0.734375q0,0.84375-0.046875,1.796875q-0.078125,1.375-0.3125,2.75t-0.71875,2.671875t-1.234375,2.2890625t-1.8515625,1.6015625t-2.6171875,0.609375q-1.65625,0-2.796875-0.703125t-1.859375-1.875t-1.1171875-2.65625t-0.5703125-3.0390625t-0.2109375-3.0234375t-0.0390625-2.65625z M77.83875,28.46875q0-0.890625,0.2265625-1.8359375t0.71875-1.703125t1.2421875-1.234375t1.8125-0.4765625q0.796875,0,1.6796875,0.2734375t1.6171875,0.78125t1.1953125,1.2421875t0.4609375,1.640625q0,1.09375-0.3984375,2.078125t-1.1171875,1.7578125t-1.6796875,1.21875t-2.0859375,0.4453125q-0.921875,0-1.609375-0.3359375t-1.1484375-0.8984375t-0.6875-1.328125t-0.2265625-1.625z M80.135625,28.4375q0,0.28125,0.0859375,0.828125t0.2578125,1.0703125t0.4453125,0.90625t0.6640625,0.3515625q0.828125-0.09375,1.3671875-0.5390625t0.875-1.0859375t0.46875-1.390625t0.1328125-1.421875q0-0.859375-0.3359375-1.4375t-1.1015625-0.9375q0,0.03125,0.03125,0.03125t0.03125-0.03125l-0.390625-0.09375q-0.15625-0.0625-0.3828125-0.140625t-0.4453125-0.34375q-0.609375,0.21875-0.9453125,0.5625t-0.5078125,0.8359375t-0.2109375,1.1796875t-0.0390625,1.65625z"/></svg>
